<svg viewBox="85 5 40 40" xmlns="http://www.w3.org/2000/svg">
  <!-- Gray circular element -->
  <path d="M120.633 18.475c2.169 8.616-3.073 17.354-11.71 19.516-8.633 2.164-17.391-3.067-19.56-11.682-2.168-8.618 3.074-17.354 11.709-19.52 8.635-2.161 17.393 3.07 19.561 11.686" fill="#B5B7B9"/>

  <!-- Dark gray overlay -->
  <path d="M90.333 21.597s5.587 12.036 16.542 11.121c9.737-.736 12.014-6.962 12.014-6.962s-2.057 10.123-12.965 10.976c0 0-8.326.971-13.423-7.019 0 0-2.182-2.93-2.168-8.116" fill="#5E5F61"/>

  <!-- White decorative elements -->
  <path d="M120.236 15.93c-6.635 1.16-8.627.861-9.91-3.644 2.822.47 4.512 1.343 4.512 1.343-1.633-1.79-3.36-2.981-5.07-3.748-.092-.46-.183-.948-.272-1.466.089.51.17.996.24 1.451-6.5-2.896-12.77.319-12.77.319s-2.383 1.39-1.758 2.667c.66 1.937 2.026 1.16 2.026 1.16 5.12-2.221 9.623-2.26 12.794-1.775.364 4.757-1.387 5.724-8.063 6.891 8.175-1.429 9.302-.641 10.735 7.518-1.433-8.16-.643-9.283 7.536-10.716" fill="#FEFEFE"/>
</svg>
